<?xml version="1.0" encoding="UTF-8"?>
<svg id="Layer_1" xmlns="http://www.w3.org/2000/svg" version="1.1" viewBox="0 0 1024 1024">
  <!-- Generator: Adobe Illustrator 29.4.0, SVG Export Plug-In . SVG Version: 2.1.0 Build 152)  -->
  <defs>
    <style>
      .st0 {
        fill: #fed700;
      }
    </style>
  </defs>
  <circle class="st0" cx="511.9" cy="511.6" r="182.4"/>
  <path class="st0" d="M179.8,491.3h104.5c25.3,7.5,20.7,40.9-5.9,41.6-29.9-1.4-62.3,2.3-91.9.2-28.6-2.1-34.2-33.8-6.7-41.8Z"/>
  <path class="st0" d="M740.7,491.2h103.5c25,7,20.5,39.9-4.9,41.6-28.8-1.1-59.3,1.9-87.9.2-8.5-.5-16.2-1.3-21.9-8.1-9.7-11.6-3.3-30.3,11.2-33.7Z"/>
  <path class="st0" d="M281.8,258.2c4.7-.2,9.9.9,13.7,3.8,19.7,23.6,48.5,45.1,67.5,68.5,4.9,6,6.7,8.8,6,17-1.2,13.8-12.5,20.1-25.5,18.5-3.9-.5-7.9-4.4-11-7-23.8-20.4-46.6-47.9-68.7-70.3-8.2-14.1,2.6-29.7,18-30.5Z"/>
  <path class="st0" d="M497.4,856.6c-3.7-3.7-6.3-11-6.4-16.1s1.1-6,1.1-9c.3-30.7-.3-61.3,0-92,8.2-20.9,37.8-18.2,40.9,5-2.4,30.9,3.6,67.6,0,97.8-2.1,17.3-22.9,26.9-35.5,14.3Z"/>
  <path class="st0" d="M508.8,161.3c10.6-1.5,22.9,4.7,24.2,16.2,3.6,31.5-2.6,69.7,0,101.9-2.9,21.2-35,21.9-40.4,3.6-1.7-5.7-.4-9.5-.4-14.5-.3-31.7,0-63.3,0-95,2.4-6.8,9.8-11.3,16.7-12.3Z"/>
  <path class="st0" d="M744.6,305.6c-15.3,16.4-37.2,40.5-54.1,54.4-21.1,17.4-46.5-6.1-30.9-26.9,23.2-19.6,44-49.2,66.9-68.1,10.3-8.5,21.8-10.3,30.9,1.1,13.8,17.3-1.7,27.5-12.8,39.5Z"/>
  <path class="st0" d="M672.8,658.2c9.2-1,14.3,3.3,20.7,8.8,22.2,19,42,44.3,64.5,63.5,12.7,19.1-5.4,43-26.9,31.9l-73.5-73.5c-7.4-12.7.7-29.2,15.2-30.7Z"/>
  <path class="st0" d="M336.6,718.6c-12.2,12.6-25.9,28.1-38.7,39.8-11.9,10.9-28.8,8.6-35.1-6.7-5.2-12.8,3.3-22.1,12.7-29.7,20.2-16.7,39.2-44,59.5-59.5s42.8,8.9,29,28-20,20.4-27.4,28.1Z"/>
</svg>