<?xml version="1.0" encoding="UTF-8"?>
<svg xmlns="http://www.w3.org/2000/svg" version="1.1" viewBox="0 0 1024 1024">
  <!-- Generator: Adobe Illustrator 29.4.0, SVG Export Plug-In . SVG Version: 2.1.0 Build 152)  -->
  <defs>
    <style>
      .st0, .st1 {
        display: none;
      }

      .st0, .st2 {
        fill: #fed700;
      }

      .st3 {
        fill: #5590cc;
      }

      .st4 {
        fill: #fff;
      }

      .st5 {
        fill: silver;
      }
    </style>
  </defs>
  <g id="Clear_x5F_Day" class="st1">
    <circle class="st0" cx="511.9" cy="511.6" r="182.4"/>
    <path class="st0" d="M179.8,491.3h104.5c25.3,7.5,20.7,40.9-5.9,41.6-29.9-1.4-62.3,2.3-91.9.2-28.6-2.1-34.2-33.8-6.7-41.8Z"/>
    <path class="st0" d="M740.7,491.2h103.5c25,7,20.5,39.9-4.9,41.6-28.8-1.1-59.3,1.9-87.9.2-8.5-.5-16.2-1.3-21.9-8.1-9.7-11.6-3.3-30.3,11.2-33.7Z"/>
    <path class="st0" d="M281.8,258.2c4.7-.2,9.9.9,13.7,3.8,19.7,23.6,48.5,45.1,67.5,68.5,4.9,6,6.7,8.8,6,17-1.2,13.8-12.5,20.1-25.5,18.5-3.9-.5-7.9-4.4-11-7-23.8-20.4-46.6-47.9-68.7-70.3-8.2-14.1,2.6-29.7,18-30.5Z"/>
    <path class="st0" d="M497.4,856.6c-3.7-3.7-6.3-11-6.4-16.1s1.1-6,1.1-9c.3-30.7-.3-61.3,0-92,8.2-20.9,37.8-18.2,40.9,5-2.4,30.9,3.6,67.6,0,97.8-2.1,17.3-22.9,26.9-35.5,14.3Z"/>
    <path class="st0" d="M508.8,161.3c10.6-1.5,22.9,4.7,24.2,16.2,3.6,31.5-2.6,69.7,0,101.9-2.9,21.2-35,21.9-40.4,3.6-1.7-5.7-.4-9.5-.4-14.5-.3-31.7,0-63.3,0-95,2.4-6.8,9.8-11.3,16.7-12.3Z"/>
    <path class="st0" d="M744.6,305.6c-15.3,16.4-37.2,40.5-54.1,54.4-21.1,17.4-46.5-6.1-30.9-26.9,23.2-19.6,44-49.2,66.9-68.1,10.3-8.5,21.8-10.3,30.9,1.1,13.8,17.3-1.7,27.5-12.8,39.5Z"/>
    <path class="st0" d="M672.8,658.2c9.2-1,14.3,3.3,20.7,8.8,22.2,19,42,44.3,64.5,63.5,12.7,19.1-5.4,43-26.9,31.9l-73.5-73.5c-7.4-12.7.7-29.2,15.2-30.7Z"/>
    <path class="st0" d="M336.6,718.6c-12.2,12.6-25.9,28.1-38.7,39.8-11.9,10.9-28.8,8.6-35.1-6.7-5.2-12.8,3.3-22.1,12.7-29.7,20.2-16.7,39.2-44,59.5-59.5s42.8,8.9,29,28-20,20.4-27.4,28.1Z"/>
  </g>
  <g id="Showers_x5F_Day" class="st1">
    <path class="st4" d="M767.7,471c79.1-5.5,139.4,72.5,107.4,147.3-16.3,38-54.6,64.3-95.9,67.1h-355.6c-90.2-5.7-143.3-98.3-99.1-179.1,24.5-44.7,75.2-70.8,126-63.8,13.3-56.9,61.3-106.4,117.9-121.1,99.1-25.7,196.2,48.3,199.3,149.6Z"/>
    <path class="st2" d="M436.1,421.6c-42.3-2.4-81.7,16.3-107.8,49.2-76.3-39.4-80.5-149.1-11-198.1s160.8-17.6,180,62.9c-6.9,7.7-15.2,13.9-22.3,21.6-17.1,18.5-30.5,40.7-39,64.4Z"/>
    <path class="st3" d="M606.5,849.1c-29.8,29.3-82.1-4.4-62.1-45.2,11.6-23.7,30.3-53,41.9-70.7,13.9-15,18-4.2,21.2,10.2,4,18.3,10.2,57.9,10.5,76,.1,10.4-3.9,22.3-11.4,29.7Z"/>
    <path class="st3" d="M743.4,727.2c7-1.5,9.1,1,10.9,7.2,4.8,16.4,14.6,85.1,4.9,107.1-26.3,38.9-82.8,10.3-68.6-34.7,3.1-9.7,35-61.8,42.3-71.5,2.4-3.2,6.4-7.3,10.4-8.1Z"/>
    <path class="st3" d="M457.8,728.4c2.1,1.7,3.8,8.6,4.4,11.5,3.7,18.4,8,51,9,69.7,1.2,20.7-7.3,43.8-29.3,49.4-33.3,8.5-54.7-23.8-43.8-53.6,1.1-2.1,27.4-51.6,43.1-71.8,3.7-4.7,10.9-9.9,16.6-5.2Z"/>
    <path class="st2" d="M166.4,377.7c-7.1-7-2.9-18.9,6.8-20.3s49.9-1.4,58.9,0,14,21.8-3.3,23.9c-12,1.4-40.2,1.3-52.4.1s-7.8-1.4-10-3.6Z"/>
    <path class="st2" d="M379.8,217.9c-1.4-1.5-2.4-3.5-2.6-5.6-1.4-11.1-1.3-45.9.1-56.8,2.2-16,21.8-15.4,23.8,2.2,1.8,15.1-3.2,36.4-1.1,52.3-.9,10.3-12.9,15.7-20.3,7.9Z"/>
    <path class="st2" d="M536.6,207.6c10.9-2.2,17.3,8,12.1,17.6-2.9,5.3-30.9,33.8-36.5,37.9-12.4,9.1-25.6-2.9-17.4-15.2,4.9-7.5,28.1-31.1,35.5-36.7s4.1-3.1,6.3-3.6Z"/>
    <path class="st2" d="M275.1,470.3c10.3-.4,15.6,13,8.5,20.3-13,9.6-24.7,26.9-37.7,35.6-12.4,8.3-24.1-3.3-16.8-15.7,11.7-10.5,23.5-24.8,35.5-34.5,3.1-2.5,6.4-5.5,10.6-5.6Z"/>
    <path class="st2" d="M234.7,208.7c5.3-1.2,8.1-.3,12.3,2.6,6.5,4.5,26.4,24.5,32.4,31,11.9,12.9,8.1,27.9-10.8,22.9-9.5-10.4-21.5-18.8-30.8-29.4-3.5-4-10.1-10.8-10.4-15.9-.3-4.8,2.4-10.1,7.4-11.2Z"/>
  </g>
  <g id="Layer_3" class="st1">
    <path class="st5" d="M543.1,270.6c6.2-.5,25.5-1.4,30.1,1.3s2.2,1.5,2,2.8c-.6,3.4-19.6,13.6-23.6,16.4-77.7,54.3-114.7,144.4-88.2,237.6,27.6,97.3,117.7,154.9,217.5,149.6,11.6-.6,28.8-5.6,39-5.1s4.2.3,5.2,2.6c-10.3,16.3-28,28.4-44.4,38.3-143.8,87-322.2,5.2-352-158.6-25.1-137.9,72.7-274.5,214.5-284.9Z"/>
  </g>
  <g id="Layer_4">
    <path class="st4" d="M641.7,442c59.9-12.2,121.9,25.7,140,83.5,24.5,78.5-33.1,154.1-113.5,157.5-110.8,4.8-224.9-3.7-336,0-62.9-3.8-107.6-57.2-95.2-120.2,9.4-47.9,52.5-78.3,100.6-75.9,6.1-59.9,48.3-114,104.6-134.9,80.6-29.9,168,11.9,199.5,90Z"/>
  </g>
</svg>