<?xml version="1.0" encoding="UTF-8"?>
<svg id="sleet" xmlns="http://www.w3.org/2000/svg" version="1.1" viewBox="0 0 1024 1024">
  <!-- Generator: Adobe Illustrator 29.5.0, SVG Export Plug-In . SVG Version: 2.1.0 Build 137)  -->
  <defs>
    <style>
      .st0 {
        fill: #69c;
      }

      .st1 {
        fill: #fff;
      }

      .st2 {
        fill: silver;
      }
    </style>
  </defs>
  <path class="st2" d="M427.7,542.3c-38.9-2.3-80.9,6.3-117.7-8.8-35.6-14.7-64.2-49-70.9-87.1-14.2-81,53.1-151,133.5-147.2,14.5-51.8,52.6-96.5,103.6-114.9,71.9-26,151.9-2.2,195.9,60.1,18.6,26.3,28.7,56.8,31.6,88.9,91.1-2.7,140.7,105,78.5,173-47.7,52.2-118.3,32.1-181,36h-173.5Z"/>
  <path class="st1" d="M520.7,618.7l42-23.5c11.4-2.4,19.5,8,13,18-11.5,8.5-25.1,14.1-36.9,22.1-1.1.8-6.3,3.7-5.1,5.4l42.5,24c8,7,2.4,19.8-8,19.8-10.4,0-36.1-21.1-47.5-24.8-.3,7.8.3,15.7,0,23.5-.3,7.9-.2,19.6-1,27-1.5,13.1-22,8.5-22,2v-52.5l-44.7,24.8c-9.4,1.8-19-7.4-13.7-16.7,4.4-7.7,37.7-21.8,46.4-28.1l-42.5-25.9c-7.7-10.3,2.1-22.5,13.8-17.8l40.7,22.8v-48.5c0-4.4,7.5-8.5,11.5-8.5s11.5,4.4,11.5,8.5v48.5Z"/>
  <path class="st0" d="M383.7,650.2c6-1.3,10.5,1.2,11.2,7.4-1.3,26.5,14.2,80,1.9,102.7-22.9,42.3-94.7,11.1-62.4-41.4,13.6-22.2,30.7-42.5,44.2-64.8,1.3-1.7,3-3.4,5.1-3.9Z"/>
  <path class="st0" d="M657.4,660.9c5.2-1.2,10.3.8,11.2,6.3.7,25.6,6.2,52.7,6.7,78.1.6,35.8-34.6,61.3-63.1,36.3-29.6-26,.2-58.2,16.2-81.7,6.9-10.1,17.3-28,24.8-36.2,1.3-1.4,2.2-2.4,4.2-2.8Z"/>
</svg>