<?xml version="1.0" encoding="UTF-8"?>
<svg id="Showers_Day" xmlns="http://www.w3.org/2000/svg" viewBox="0 0 720.97 716.4">
  <defs>
    <style>
      .cls-1 {
        fill: #5590cc;
      }

      .cls-2 {
        fill: #fff;
      }

      .cls-3 {
        fill: #fed700;
      }
    </style>
  </defs>
  <path class="cls-2" d="M604.81,327.01c79.11-5.45,139.45,72.46,107.4,147.31-16.28,38.03-54.56,64.33-95.86,67.13h-355.62c-90.21-5.7-143.34-98.3-99.13-179.09,24.48-44.73,75.17-70.8,125.97-63.8,13.33-56.87,61.31-106.43,117.92-121.12,99.05-25.71,196.15,48.29,199.32,149.56Z"/>
  <path class="cls-3" d="M273.21,277.63c-42.35-2.4-81.68,16.35-107.76,49.21-76.28-39.41-80.51-149.09-11.03-198.09s160.84-17.64,180.04,62.91c-6.93,7.73-15.22,13.94-22.28,21.56-17.13,18.48-30.5,40.7-38.97,64.41Z"/>
  <path class="cls-1" d="M443.62,705.11c-29.84,29.34-82.12-4.44-62.15-45.19,11.61-23.69,30.27-53.04,41.94-70.73,13.95-15.04,18.01-4.21,21.15,10.19,3.99,18.34,10.23,57.86,10.46,76.02.13,10.44-3.91,22.34-11.4,29.71Z"/>
  <path class="cls-1" d="M580.45,583.23c7.02-1.47,9.12.99,10.92,7.18,4.76,16.42,14.6,85.13,4.95,107.13-26.35,38.89-82.84,10.27-68.61-34.7,3.07-9.72,34.98-61.76,42.3-71.46,2.43-3.22,6.39-7.3,10.45-8.15Z"/>
  <path class="cls-1" d="M294.93,584.39c2.07,1.7,3.82,8.65,4.39,11.47,3.69,18.38,7.96,51.03,9.04,69.72,1.19,20.69-7.32,43.84-29.3,49.44-33.31,8.49-54.73-23.81-43.78-53.63,1.14-2.07,27.4-51.6,43.09-71.77,3.68-4.73,10.87-9.92,16.57-5.22Z"/>
  <path class="cls-3" d="M3.54,233.65c-7.08-6.95-2.87-18.85,6.81-20.34,9.06-1.4,49.94-1.43,58.94,0,12.25,1.94,13.99,21.83-3.34,23.88-12,1.42-40.23,1.33-52.37.11-3.12-.31-7.79-1.43-10.04-3.64Z"/>
  <path class="cls-3" d="M216.85,73.93c-1.44-1.51-2.36-3.49-2.61-5.59-1.35-11.06-1.34-45.88.14-56.83,2.16-15.96,21.77-15.41,23.85,2.21,1.78,15.07-3.16,36.36-1.07,52.29-.86,10.3-12.89,15.7-20.31,7.92Z"/>
  <path class="cls-3" d="M373.71,63.62c10.87-2.24,17.3,8.02,12.15,17.63-2.86,5.33-30.91,33.82-36.47,37.91-12.38,9.1-25.59-2.88-17.43-15.24,4.93-7.45,28.15-31.12,35.46-36.74,1.79-1.37,4.07-3.1,6.3-3.56Z"/>
  <path class="cls-3" d="M112.18,326.3c10.27-.36,15.55,12.98,8.48,20.3-12.96,9.57-24.69,26.87-37.72,35.58s-24.05-3.31-16.84-15.75c11.7-10.47,23.47-24.77,35.5-34.51,3.1-2.51,6.41-5.47,10.58-5.61Z"/>
  <path class="cls-3" d="M71.76,64.7c5.35-1.23,8.06-.3,12.25,2.6,6.45,4.46,26.39,24.52,32.41,31.03,11.9,12.86,8.06,27.93-10.84,22.88-9.54-10.41-21.47-18.83-30.78-29.38-3.49-3.96-10.07-10.75-10.44-15.89-.34-4.76,2.42-10.09,7.4-11.23Z"/>
</svg>