<?xml version="1.0" encoding="UTF-8"?>
<svg id="Thundersnow" xmlns="http://www.w3.org/2000/svg" version="1.1" viewBox="0 0 1024 1024">
  <!-- Generator: Adobe Illustrator 29.5.0, SVG Export Plug-In . SVG Version: 2.1.0 Build 137)  -->
  <defs>
    <style>
      .st0 {
        fill: #69c;
      }

      .st1 {
        fill: #fff;
      }

      .st2 {
        fill: silver;
      }

      .st3 {
        fill: #fed700;
      }
    </style>
  </defs>
  <path class="st3" d="M565.6,486.1c.6.2,1.7,1.6,1.5,2.4-16.4,36.4-34.8,72.1-49,109.5,5.3-.8,10.5.8,15.5,1,20.8.9,46.1-2.4,66.1,0s3.7.3,3.4,2.4l-161.4,197.6c-3.9-.2-5.1-3.4-4.1-7l47.5-130.4c-.6-1.9-7.5-2.5-9.4-2.7-20.1-1.6-43.2,2-63,0s-7.1-.9-6.5-4.4l107-168.6h52.5Z"/>
  <path class="st0" d="M306.8,570.3c7.3-2.2,11.1,3,12,9.6,1.5,10.5,1,22.9,2.3,33.7,2.4,20.9,12.1,47.2.8,66.8-23.4,40.6-92,11.6-62.2-41.2,12.5-22.2,31-43,43.6-65.4.9-1.3,2-3,3.5-3.5Z"/>
  <path class="st0" d="M599.8,692.2c4.5-.9,8.4,1.8,9.2,6.4,1.7,9.2,1,20.4,2.1,29.9,2.2,19.4,11,50.9,3.5,68.5-20.5,47.6-95.6,17.3-61.1-38.1,8.8-14.2,19.2-27.6,28.4-41.6s13-24.1,17.9-25.1Z"/>
  <path class="st2" d="M600.2,566.4c-2.6-.5-191.9.9-195.6,0-35.9.1-68.8,2.8-101.4-14.5-60.3-32.1-79.9-106.1-46.5-165.5,24.2-43.1,71.2-66.2,120.4-63.1,9.1-35.1,27.9-66.5,56.2-89.3,47.5-38.1,109.4-45.1,165.9-23.1,59.2,23.1,96.2,82,100.4,144.6,1.3,1.9,13.8.6,17.1.9,104,8.1,122.4,144.1,37.1,194.2-32.1,18.9-54.9,16-90.1,15.8s-42.4.2-63.5,0Z"/>
  <path class="st1" d="M713.6,632.2l42-23.5c11.4-2.4,19.5,8,13,18-11.5,8.5-25.1,14.1-36.9,22.1-1.1.8-6.3,3.7-5.1,5.4l42.5,24c8,7,2.4,19.8-8,19.8-10.4,0-36.1-21.1-47.5-24.8-.3,7.8.3,15.7,0,23.5-.3,7.9-.2,19.6-1,27-1.5,13.1-22,8.5-22,2v-52.5l-44.7,24.8c-9.4,1.8-19-7.4-13.7-16.7,4.4-7.7,37.7-21.8,46.4-28.1l-42.5-25.9c-7.7-10.3,2.1-22.5,13.8-17.8l40.7,22.8v-48.5c0-4.4,7.5-8.5,11.5-8.5s11.5,4.4,11.5,8.5v48.5Z"/>
  <path class="st1" d="M366.6,738.2l42-23.5c11.4-2.4,19.5,8,13,18-11.5,8.5-25.1,14.1-36.9,22.1-1.1.8-6.3,3.7-5.1,5.4l42.5,24c8,7,2.4,19.8-8,19.8-10.4,0-36.1-21.1-47.5-24.8-.3,7.8.3,15.7,0,23.5-.3,7.9-.2,19.6-1,27-1.5,13.1-22,8.5-22,2v-52.5l-44.7,24.8c-9.4,1.8-19-7.4-13.7-16.7s37.7-21.8,46.4-28.1l-42.5-25.9c-7.7-10.3,2.1-22.5,13.8-17.8l40.7,22.8v-48.5c0-4.4,7.5-8.5,11.5-8.5s11.5,4.4,11.5,8.5v48.5Z"/>
</svg>